<svg id="Capa_1" enable-background="new 0 0 512 512" height="512" viewBox="0 0 512 512" width="512" xmlns="http://www.w3.org/2000/svg"><g><g><g><path d="m126.303 237.44c-6.328-5.361-7.09-14.824-1.729-21.138l105.117-123.954c5.361-6.328 14.854-7.075 21.123-1.743 6.328 5.361 7.09 14.824 1.729 21.138l-105.117 123.954c-5.403 6.393-14.879 7.045-21.123 1.743z" fill="#4d5e80"/></g></g><g><g><path d="m364.574 235.697-105.117-123.955c-5.361-6.313-4.6-15.776 1.729-21.138 6.328-5.332 15.791-4.585 21.123 1.743l105.117 123.955c5.361 6.313 4.6 15.776-1.729 21.138-6.256 5.311-15.731 4.637-21.123-1.743z" fill="#3d4566"/></g></g><g><path d="m482 406c0 41.353-33.633 75-75 75h-302c-41.367 0-75-33.647-75-75v-.308c-18.691-14.091-30-36.24-30-59.692s11.309-45.601 30-59.692v-.308c0-41.353 33.633-75 75-75h302c41.367 0 75 33.647 75 75v.308c18.691 14.092 30 36.24 30 59.692s-11.309 45.601-30 59.692z" fill="#ffd580"/></g><path d="m482 286.308v-.308c0-41.353-33.633-75-75-75h-151v270h151c41.367 0 75-33.647 75-75v-.308c18.691-14.092 30-36.24 30-59.692s-11.309-45.601-30-59.692z" fill="#ffb366"/><path d="m105 451c-24.813 0-45-20.187-45-45v-15.261l-11.94-9.002c-11.309-8.525-18.06-21.885-18.06-35.737s6.751-27.212 18.06-35.738l11.94-9.001v-15.261c0-24.813 20.187-45 45-45h302c24.813 0 45 20.187 45 45v15.261l11.94 9.002c11.309 8.525 18.06 21.885 18.06 35.737s-6.751 27.212-18.06 35.738l-11.94 9.001v15.261c0 24.813-20.187 45-45 45z" fill="#b37059"/><path d="m463.94 310.262-11.94-9.001v-15.261c0-24.813-20.187-45-45-45h-151v210h151c24.813 0 45-20.187 45-45v-15.261l11.94-9.002c11.309-8.525 18.06-21.885 18.06-35.737s-6.751-27.212-18.06-35.738z" fill="#995a4d"/><g><path d="m316 331h-120c-8.291 0-15-6.709-15-15s6.709-15 15-15h120c8.291 0 15 6.709 15 15s-6.709 15-15 15z" fill="#ffd580"/></g><g><path d="m376 391h-240c-8.291 0-15-6.709-15-15s6.709-15 15-15h240c8.291 0 15 6.709 15 15s-6.709 15-15 15z" fill="#ffd580"/></g><path d="m376 361h-120v30h120c8.291 0 15-6.709 15-15s-6.709-15-15-15z" fill="#ffb366"/><path d="m316 301h-60v30h60c8.291 0 15-6.709 15-15s-6.709-15-15-15z" fill="#ffb366"/><g id="Open_sign_1_"><g><path d="m256 121c-24.814 0-45-20.186-45-45s20.186-45 45-45 45 20.186 45 45-20.186 45-45 45zm0-60c-8.262 0-15 6.724-15 15s6.738 15 15 15 15-6.724 15-15-6.738-15-15-15z" fill="#b37059"/></g></g><path d="m271 76c0 8.276-6.738 15-15 15v30c24.814 0 45-20.186 45-45s-20.186-45-45-45v30c8.262 0 15 6.724 15 15z" fill="#995a4d"/></g></svg>